<svg xmlns="http://www.w3.org/2000/svg" xmlns:xlink="http://www.w3.org/1999/xlink" width="1080" zoomAndPan="magnify" viewBox="0 0 810 1012.49997" height="1350" preserveAspectRatio="xMidYMid meet" version="1.0"><defs><g/><clipPath id="7d596c3c1b"><path d="M 0.199219 0 L 809.800781 0 L 809.800781 1012 L 0.199219 1012 Z M 0.199219 0 " clip-rule="nonzero"/></clipPath><clipPath id="e082a9f4ae"><rect x="0" width="665" y="0" height="810"/></clipPath><clipPath id="5745df3786"><path d="M 438.148438 617.765625 L 527.355469 617.765625 L 527.355469 775.132812 L 438.148438 775.132812 Z M 438.148438 617.765625 " clip-rule="nonzero"/></clipPath><clipPath id="30b2d09470"><path d="M 264.515625 617.710938 L 353.71875 617.710938 L 353.71875 775.132812 L 264.515625 775.132812 Z M 264.515625 617.710938 " clip-rule="nonzero"/></clipPath><clipPath id="92927f1256"><path d="M 0.585938 0.765625 L 89.71875 0.765625 L 89.71875 158.132812 L 0.585938 158.132812 Z M 0.585938 0.765625 " clip-rule="nonzero"/></clipPath><clipPath id="a4419a9c5e"><rect x="0" width="90" y="0" height="159"/></clipPath></defs><g clip-path="url(#7d596c3c1b)"><path fill="#ffffff" d="M 0.199219 0 L 809.800781 0 L 809.800781 1012 L 0.199219 1012 Z M 0.199219 0 " fill-opacity="1" fill-rule="nonzero"/><path fill="#ffffff" d="M 0.199219 0 L 809.800781 0 L 809.800781 1012 L 0.199219 1012 Z M 0.199219 0 " fill-opacity="1" fill-rule="nonzero"/></g><g transform="matrix(1, 0, 0, 1, 71, 114)"><g clip-path="url(#e082a9f4ae)"><g fill="#000000" fill-opacity="1"><g transform="translate(14.315681, 643.438492)"><g><path d="M 474.5625 0 L 473.90625 -276.828125 L 338.125 -48.78125 L 290.015625 -48.78125 L 154.890625 -270.90625 L 154.890625 0 L 54.703125 0 L 54.703125 -461.390625 L 143.03125 -461.390625 L 315.71875 -174.671875 L 485.78125 -461.390625 L 573.4375 -461.390625 L 574.75 0 Z M 474.5625 0 "/></g></g></g></g></g><g clip-path="url(#5745df3786)"><path fill="#ff751f" d="M 440.773438 775.328125 C 440.300781 775.328125 439.828125 775.203125 439.402344 774.941406 C 438.296875 774.265625 437.851562 772.878906 438.351562 771.683594 L 467.777344 701.796875 L 440.773438 701.796875 C 439.863281 701.796875 439.019531 701.324219 438.539062 700.550781 C 438.0625 699.777344 438.019531 698.808594 438.425781 698 L 477.816406 619.214844 C 478.261719 618.324219 479.171875 617.765625 480.164062 617.765625 L 522.183594 617.765625 C 523.140625 617.765625 524.019531 618.285156 524.484375 619.125 C 524.945312 619.960938 524.914062 620.984375 524.402344 621.792969 L 493.691406 670.285156 L 524.808594 670.285156 C 525.832031 670.285156 526.757812 670.878906 527.1875 671.804688 C 527.621094 672.730469 527.476562 673.824219 526.820312 674.605469 L 442.785156 774.398438 C 442.269531 775.003906 441.527344 775.328125 440.773438 775.328125 " fill-opacity="1" fill-rule="nonzero"/></g><g clip-path="url(#30b2d09470)"><g transform="matrix(1, 0, 0, 1, 264, 617)"><g clip-path="url(#a4419a9c5e)"><g clip-path="url(#92927f1256)"><path fill="#ff751f" d="M 87.164062 158.328125 C 87.636719 158.328125 88.109375 158.203125 88.535156 157.941406 C 89.640625 157.265625 90.085938 155.878906 89.585938 154.683594 L 60.160156 84.796875 L 87.164062 84.796875 C 88.074219 84.796875 88.917969 84.324219 89.398438 83.550781 C 89.875 82.777344 89.921875 81.808594 89.515625 81 L 50.121094 2.214844 C 49.675781 1.324219 48.765625 0.765625 47.773438 0.765625 L 5.753906 0.765625 C 4.800781 0.765625 3.917969 1.285156 3.453125 2.125 C 2.992188 2.960938 3.023438 3.984375 3.535156 4.792969 L 34.246094 53.285156 L 3.128906 53.285156 C 2.109375 53.285156 1.179688 53.878906 0.75 54.804688 C 0.320312 55.730469 0.460938 56.824219 1.121094 57.605469 L 85.152344 157.398438 C 85.667969 158.003906 86.414062 158.328125 87.164062 158.328125 " fill-opacity="1" fill-rule="nonzero"/></g></g></g></g></svg>