<svg xmlns="http://www.w3.org/2000/svg" xmlns:xlink="http://www.w3.org/1999/xlink" width="1080" zoomAndPan="magnify" viewBox="0 0 810 1012.49997" height="1350" preserveAspectRatio="xMidYMid meet" version="1.0"><defs><g/><clipPath id="2ccccd5642"><path d="M 0.199219 0 L 809.800781 0 L 809.800781 1012 L 0.199219 1012 Z M 0.199219 0 " clip-rule="nonzero"/></clipPath><clipPath id="e364794d1f"><rect x="0" width="467" y="0" height="568"/></clipPath><clipPath id="2a3c2bf920"><path d="M 291.449219 571.167969 L 353.667969 571.167969 L 353.667969 681.328125 L 291.449219 681.328125 Z M 291.449219 571.167969 " clip-rule="nonzero"/></clipPath><clipPath id="224aff440f"><rect x="0" width="290" y="0" height="275"/></clipPath><clipPath id="564053a0a8"><path d="M 186.542969 571.167969 L 248.765625 571.167969 L 248.765625 681.363281 L 186.542969 681.363281 Z M 186.542969 571.167969 " clip-rule="nonzero"/></clipPath><clipPath id="9f1beb810c"><path d="M 0.542969 0.167969 L 62.414062 0.167969 L 62.414062 110.328125 L 0.542969 110.328125 Z M 0.542969 0.167969 " clip-rule="nonzero"/></clipPath><clipPath id="348152da1f"><rect x="0" width="63" y="0" height="111"/></clipPath></defs><g clip-path="url(#2ccccd5642)"><path fill="#ffffff" d="M 0.199219 0 L 809.800781 0 L 809.800781 1012 L 0.199219 1012 Z M 0.199219 0 " fill-opacity="1" fill-rule="nonzero"/><path fill="#ffffff" d="M 0.199219 0 L 809.800781 0 L 809.800781 1012 L 0.199219 1012 Z M 0.199219 0 " fill-opacity="1" fill-rule="nonzero"/></g><g transform="matrix(1, 0, 0, 1, 40, 215)"><g clip-path="url(#e364794d1f)"><g fill="#000000" fill-opacity="1"><g transform="translate(10.450098, 450.894671)"><g><path d="M 332.609375 0 L 332.140625 -194.015625 L 236.984375 -34.1875 L 203.265625 -34.1875 L 108.5625 -189.859375 L 108.5625 0 L 38.34375 0 L 38.34375 -323.375 L 100.25 -323.375 L 221.28125 -122.421875 L 340.453125 -323.375 L 401.90625 -323.375 L 402.828125 0 Z M 332.609375 0 "/></g></g></g></g></g><g clip-path="url(#2a3c2bf920)"><path fill="#ff751f" d="M 351.828125 570.898438 C 352.160156 570.898438 352.488281 570.988281 352.789062 571.167969 C 353.5625 571.644531 353.875 572.613281 353.523438 573.453125 L 332.902344 622.433594 L 351.828125 622.433594 C 352.464844 622.433594 353.054688 622.765625 353.394531 623.308594 C 353.726562 623.851562 353.757812 624.527344 353.472656 625.097656 L 325.867188 680.3125 C 325.554688 680.9375 324.917969 681.328125 324.21875 681.328125 L 294.769531 681.328125 C 294.101562 681.328125 293.480469 680.964844 293.15625 680.375 C 292.835938 679.789062 292.855469 679.070312 293.214844 678.503906 L 314.738281 644.519531 L 292.929688 644.519531 C 292.214844 644.519531 291.566406 644.101562 291.261719 643.457031 C 290.960938 642.804688 291.058594 642.039062 291.523438 641.492188 L 350.417969 571.550781 C 350.78125 571.125 351.300781 570.898438 351.828125 570.898438 " fill-opacity="1" fill-rule="nonzero"/></g><g transform="matrix(1, 0, 0, 1, 473, 447)"><g clip-path="url(#224aff440f)"><g fill="#000000" fill-opacity="1"><g transform="translate(1.353928, 218.491767)"><g><path d="M 133.78125 -59.625 C 133.78125 -59.1875 133.554688 -56.0625 133.109375 -50.25 L 42.21875 -50.25 C 43.851562 -42.800781 47.722656 -36.914062 53.828125 -32.59375 C 59.929688 -28.28125 67.523438 -26.125 76.609375 -26.125 C 82.859375 -26.125 88.398438 -27.054688 93.234375 -28.921875 C 98.078125 -30.785156 102.585938 -33.726562 106.765625 -37.75 L 125.296875 -17.640625 C 113.984375 -4.691406 97.457031 1.78125 75.71875 1.78125 C 62.164062 1.78125 50.175781 -0.859375 39.75 -6.140625 C 29.332031 -11.429688 21.289062 -18.765625 15.625 -28.140625 C 9.96875 -37.523438 7.140625 -48.171875 7.140625 -60.078125 C 7.140625 -71.835938 9.929688 -82.445312 15.515625 -91.90625 C 21.097656 -101.363281 28.765625 -108.734375 38.515625 -114.015625 C 48.273438 -119.304688 59.1875 -121.953125 71.25 -121.953125 C 83.007812 -121.953125 93.65625 -119.421875 103.1875 -114.359375 C 112.71875 -109.296875 120.195312 -102.035156 125.625 -92.578125 C 131.0625 -83.117188 133.78125 -72.132812 133.78125 -59.625 Z M 71.46875 -95.59375 C 63.570312 -95.59375 56.941406 -93.359375 51.578125 -88.890625 C 46.222656 -84.421875 42.953125 -78.316406 41.765625 -70.578125 L 100.953125 -70.578125 C 99.765625 -78.171875 96.488281 -84.238281 91.125 -88.78125 C 85.757812 -93.320312 79.207031 -95.59375 71.46875 -95.59375 Z M 80.40625 -167.734375 L 117.921875 -167.734375 L 77.5 -135.5625 L 50.25 -135.5625 Z M 80.40625 -167.734375 "/></g></g></g><g fill="#000000" fill-opacity="1"><g transform="translate(142.445405, 218.491767)"><g><path d="M 74.15625 1.78125 C 61.34375 1.78125 49.835938 -0.859375 39.640625 -6.140625 C 29.441406 -11.429688 21.472656 -18.765625 15.734375 -28.140625 C 10.003906 -37.523438 7.140625 -48.171875 7.140625 -60.078125 C 7.140625 -71.992188 10.003906 -82.640625 15.734375 -92.015625 C 21.472656 -101.398438 29.441406 -108.734375 39.640625 -114.015625 C 49.835938 -119.304688 61.34375 -121.953125 74.15625 -121.953125 C 86.8125 -121.953125 97.863281 -119.304688 107.3125 -114.015625 C 116.769531 -108.734375 123.65625 -101.175781 127.96875 -91.34375 L 100.953125 -76.828125 C 94.703125 -87.847656 85.691406 -93.359375 73.921875 -93.359375 C 64.835938 -93.359375 57.316406 -90.378906 51.359375 -84.421875 C 45.410156 -78.460938 42.4375 -70.347656 42.4375 -60.078125 C 42.4375 -49.804688 45.410156 -41.691406 51.359375 -35.734375 C 57.316406 -29.773438 64.835938 -26.796875 73.921875 -26.796875 C 85.835938 -26.796875 94.847656 -32.304688 100.953125 -43.328125 L 127.96875 -28.59375 C 123.65625 -19.0625 116.769531 -11.613281 107.3125 -6.25 C 97.863281 -0.894531 86.8125 1.78125 74.15625 1.78125 Z M 74.15625 1.78125 "/></g></g></g></g></g><g clip-path="url(#564053a0a8)"><g transform="matrix(1, 0, 0, 1, 186, 571)"><g clip-path="url(#348152da1f)"><g clip-path="url(#9f1beb810c)"><path fill="#ff751f" d="M 2.03125 -0.101562 C 1.703125 -0.101562 1.371094 -0.0117188 1.074219 0.167969 C 0.296875 0.644531 -0.015625 1.613281 0.335938 2.453125 L 20.960938 51.433594 L 2.035156 51.433594 C 1.394531 51.433594 0.804688 51.765625 0.46875 52.308594 C 0.132812 52.851562 0.101562 53.527344 0.386719 54.097656 L 27.996094 109.3125 C 28.308594 109.9375 28.945312 110.328125 29.640625 110.328125 L 59.089844 110.328125 C 59.761719 110.328125 60.378906 109.964844 60.703125 109.375 C 61.027344 108.789062 61.003906 108.070312 60.644531 107.503906 L 39.121094 73.519531 L 60.933594 73.519531 C 61.648438 73.519531 62.296875 73.101562 62.597656 72.457031 C 62.902344 71.804688 62.800781 71.039062 62.339844 70.492188 L 3.441406 0.550781 C 3.082031 0.125 2.5625 -0.101562 2.03125 -0.101562 " fill-opacity="1" fill-rule="nonzero"/></g></g></g></g></svg>