<svg xmlns="http://www.w3.org/2000/svg" xmlns:xlink="http://www.w3.org/1999/xlink" width="512" zoomAndPan="magnify" viewBox="0 0 384 383.999986" height="512" preserveAspectRatio="xMidYMid meet" version="1.0"><defs><g/><clipPath id="f794dc631c"><rect x="0" width="244" y="0" height="298"/></clipPath><clipPath id="abf05fcc7a"><path d="M 137.085938 225.992188 L 169.820312 225.992188 L 169.820312 283.71875 L 137.085938 283.71875 Z M 137.085938 225.992188 " clip-rule="nonzero"/></clipPath><clipPath id="6de9f407cd"><rect x="0" width="152" y="0" height="144"/></clipPath><clipPath id="e9409f97ee"><path d="M 82 225.992188 L 114.9375 225.992188 L 114.9375 283.742188 L 82 283.742188 Z M 82 225.992188 " clip-rule="nonzero"/></clipPath><clipPath id="347499f146"><path d="M 0.207031 0.992188 L 32.9375 0.992188 L 32.9375 58.71875 L 0.207031 58.71875 Z M 0.207031 0.992188 " clip-rule="nonzero"/></clipPath><clipPath id="06c4159081"><rect x="0" width="33" y="0" height="59"/></clipPath></defs><g transform="matrix(1, 0, 0, 1, 6, 39)"><g clip-path="url(#f794dc631c)"><g fill="#000000" fill-opacity="1"><g transform="translate(5.194695, 236.648061)"><g><path d="M 174 0 L 173.765625 -101.5 L 123.984375 -17.890625 L 106.328125 -17.890625 L 56.796875 -99.328125 L 56.796875 0 L 20.0625 0 L 20.0625 -169.171875 L 52.4375 -169.171875 L 115.765625 -64.046875 L 178.109375 -169.171875 L 210.25 -169.171875 L 210.734375 0 Z M 174 0 "/></g></g></g></g></g><g clip-path="url(#abf05fcc7a)"><path fill="#ff751f" d="M 168.855469 225.953125 C 169.027344 225.953125 169.203125 226 169.359375 226.097656 C 169.761719 226.34375 169.925781 226.851562 169.742188 227.289062 L 158.957031 252.910156 L 168.855469 252.910156 C 169.191406 252.910156 169.5 253.085938 169.675781 253.371094 C 169.851562 253.652344 169.867188 254.007812 169.71875 254.304688 L 155.277344 283.1875 C 155.113281 283.515625 154.777344 283.71875 154.414062 283.71875 L 139.007812 283.71875 C 138.660156 283.71875 138.335938 283.53125 138.164062 283.222656 C 137.996094 282.914062 138.007812 282.539062 138.195312 282.242188 L 149.457031 264.464844 L 138.046875 264.464844 C 137.671875 264.464844 137.332031 264.246094 137.175781 263.910156 C 137.015625 263.570312 137.070312 263.167969 137.308594 262.882812 L 168.117188 226.296875 C 168.308594 226.074219 168.582031 225.953125 168.855469 225.953125 " fill-opacity="1" fill-rule="nonzero"/></g><g transform="matrix(1, 0, 0, 1, 223, 163)"><g clip-path="url(#6de9f407cd)"><g fill="#000000" fill-opacity="1"><g transform="translate(0.606411, 114.488321)"><g><path d="M 69.984375 -31.203125 C 69.984375 -30.960938 69.867188 -29.328125 69.640625 -26.296875 L 22.078125 -26.296875 C 22.941406 -22.398438 24.96875 -19.320312 28.15625 -17.0625 C 31.351562 -14.800781 35.328125 -13.671875 40.078125 -13.671875 C 43.347656 -13.671875 46.25 -14.15625 48.78125 -15.125 C 51.3125 -16.101562 53.664062 -17.644531 55.84375 -19.75 L 65.546875 -9.234375 C 59.628906 -2.453125 50.984375 0.9375 39.609375 0.9375 C 32.523438 0.9375 26.253906 -0.441406 20.796875 -3.203125 C 15.347656 -5.972656 11.140625 -9.8125 8.171875 -14.71875 C 5.210938 -19.625 3.734375 -25.195312 3.734375 -31.4375 C 3.734375 -37.582031 5.191406 -43.128906 8.109375 -48.078125 C 11.035156 -53.023438 15.050781 -56.878906 20.15625 -59.640625 C 25.257812 -62.410156 30.960938 -63.796875 37.265625 -63.796875 C 43.421875 -63.796875 48.988281 -62.46875 53.96875 -59.8125 C 58.957031 -57.164062 62.875 -53.367188 65.71875 -48.421875 C 68.5625 -43.484375 69.984375 -37.742188 69.984375 -31.203125 Z M 37.390625 -50.015625 C 33.265625 -50.015625 29.796875 -48.84375 26.984375 -46.5 C 24.179688 -44.164062 22.46875 -40.972656 21.84375 -36.921875 L 52.8125 -36.921875 C 52.1875 -40.890625 50.472656 -44.0625 47.671875 -46.4375 C 44.867188 -48.820312 41.441406 -50.015625 37.390625 -50.015625 Z M 42.0625 -87.75 L 61.6875 -87.75 L 40.53125 -70.921875 L 26.28125 -70.921875 Z M 42.0625 -87.75 "/></g></g></g><g fill="#000000" fill-opacity="1"><g transform="translate(74.417726, 114.488321)"><g><path d="M 38.796875 0.9375 C 32.097656 0.9375 26.078125 -0.441406 20.734375 -3.203125 C 15.398438 -5.972656 11.234375 -9.8125 8.234375 -14.71875 C 5.234375 -19.625 3.734375 -25.195312 3.734375 -31.4375 C 3.734375 -37.664062 5.234375 -43.234375 8.234375 -48.140625 C 11.234375 -53.046875 15.398438 -56.878906 20.734375 -59.640625 C 26.078125 -62.410156 32.097656 -63.796875 38.796875 -63.796875 C 45.410156 -63.796875 51.191406 -62.410156 56.140625 -59.640625 C 61.085938 -56.878906 64.691406 -52.929688 66.953125 -47.796875 L 52.8125 -40.1875 C 49.539062 -45.957031 44.828125 -48.84375 38.671875 -48.84375 C 33.921875 -48.84375 29.988281 -47.285156 26.875 -44.171875 C 23.757812 -41.054688 22.203125 -36.8125 22.203125 -31.4375 C 22.203125 -26.0625 23.757812 -21.8125 26.875 -18.6875 C 29.988281 -15.570312 33.921875 -14.015625 38.671875 -14.015625 C 44.898438 -14.015625 49.613281 -16.898438 52.8125 -22.671875 L 66.953125 -14.953125 C 64.691406 -9.972656 61.085938 -6.078125 56.140625 -3.265625 C 51.191406 -0.460938 45.410156 0.9375 38.796875 0.9375 Z M 38.796875 0.9375 "/></g></g></g></g></g><g clip-path="url(#e9409f97ee)"><g transform="matrix(1, 0, 0, 1, 82, 225)"><g clip-path="url(#06c4159081)"><g clip-path="url(#347499f146)"><path fill="#ff751f" d="M 1.171875 0.953125 C 0.996094 0.953125 0.824219 1 0.667969 1.097656 C 0.261719 1.34375 0.101562 1.851562 0.285156 2.289062 L 11.070312 27.910156 L 1.171875 27.910156 C 0.835938 27.910156 0.527344 28.085938 0.351562 28.371094 C 0.175781 28.652344 0.160156 29.007812 0.308594 29.304688 L 14.75 58.1875 C 14.914062 58.515625 15.25 58.71875 15.613281 58.71875 L 31.015625 58.71875 C 31.367188 58.71875 31.691406 58.53125 31.859375 58.222656 C 32.03125 57.914062 32.019531 57.539062 31.832031 57.242188 L 20.570312 39.464844 L 31.980469 39.464844 C 32.355469 39.464844 32.695312 39.246094 32.851562 38.910156 C 33.011719 38.570312 32.957031 38.167969 32.714844 37.882812 L 1.90625 1.296875 C 1.71875 1.074219 1.445312 0.953125 1.171875 0.953125 " fill-opacity="1" fill-rule="nonzero"/></g></g></g></g></svg>